<svg width="456" height="599" xmlns="http://www.w3.org/2000/svg" xmlns:xlink="http://www.w3.org/1999/xlink" xml:space="preserve" overflow="hidden"><defs><clipPath id="clip0"><rect x="276" y="121" width="456" height="599"/></clipPath><clipPath id="clip1"><rect x="276" y="121" width="456" height="599"/></clipPath><clipPath id="clip2"><rect x="276" y="122" width="456" height="597"/></clipPath><clipPath id="clip3"><rect x="276" y="122" width="456" height="597"/></clipPath><clipPath id="clip4"><rect x="276" y="122" width="456" height="968"/></clipPath><linearGradient x1="151.777" y1="1041.71" x2="601.76" y2="1041.71" gradientUnits="userSpaceOnUse" spreadMethod="reflect" id="fill5"><stop offset="0" stop-color="#FC9109" stop-opacity="1"/><stop offset="0.025" stop-color="#FB9008" stop-opacity="1"/><stop offset="0.05" stop-color="#FB9008" stop-opacity="1"/><stop offset="0.075" stop-color="#FB9008" stop-opacity="1"/><stop offset="0.1" stop-color="#FB9008" stop-opacity="1"/><stop offset="0.125" stop-color="#FB9008" stop-opacity="1"/><stop offset="0.15" stop-color="#FB8F08" stop-opacity="1"/><stop offset="0.175" stop-color="#FA8F08" stop-opacity="1"/><stop offset="0.2" stop-color="#FA8E08" stop-opacity="1"/><stop offset="0.225" stop-color="#FA8E08" stop-opacity="1"/><stop offset="0.25" stop-color="#F98D08" stop-opacity="1"/><stop offset="0.275" stop-color="#F98D08" stop-opacity="1"/><stop offset="0.3" stop-color="#F88C08" stop-opacity="1"/><stop offset="0.325" stop-color="#F88C07" stop-opacity="1"/><stop offset="0.35" stop-color="#F78B07" stop-opacity="1"/><stop offset="0.375" stop-color="#F78A07" stop-opacity="1"/><stop offset="0.4" stop-color="#F68907" stop-opacity="1"/><stop offset="0.425" stop-color="#F58807" stop-opacity="1"/><stop offset="0.45" stop-color="#F58706" stop-opacity="1"/><stop offset="0.475" stop-color="#F48606" stop-opacity="1"/><stop offset="0.5" stop-color="#F38506" stop-opacity="1"/><stop offset="0.525" stop-color="#F28406" stop-opacity="1"/><stop offset="0.55" stop-color="#F18306" stop-opacity="1"/><stop offset="0.575" stop-color="#F18205" stop-opacity="1"/><stop offset="0.6" stop-color="#F08105" stop-opacity="1"/><stop offset="0.625" stop-color="#EF8005" stop-opacity="1"/><stop offset="0.65" stop-color="#EE7E04" stop-opacity="1"/><stop offset="0.675" stop-color="#ED7D04" stop-opacity="1"/><stop offset="0.7" stop-color="#EC7B04" stop-opacity="1"/><stop offset="0.725" stop-color="#EB7A04" stop-opacity="1"/><stop offset="0.75" stop-color="#E97903" stop-opacity="1"/><stop offset="0.775" stop-color="#E87703" stop-opacity="1"/><stop offset="0.8" stop-color="#E77603" stop-opacity="1"/><stop offset="0.825" stop-color="#E67402" stop-opacity="1"/><stop offset="0.85" stop-color="#E57202" stop-opacity="1"/><stop offset="0.875" stop-color="#E37101" stop-opacity="1"/><stop offset="0.9" stop-color="#E26F01" stop-opacity="1"/><stop offset="0.925" stop-color="#E16D01" stop-opacity="1"/><stop offset="0.95" stop-color="#DF6B00" stop-opacity="1"/><stop offset="0.975" stop-color="#DE6900" stop-opacity="1"/><stop offset="1" stop-color="#DD6800" stop-opacity="1"/></linearGradient><linearGradient x1="153.114" y1="976.188" x2="605.771" y2="976.188" gradientUnits="userSpaceOnUse" spreadMethod="reflect" id="fill6"><stop offset="0" stop-color="#EE7A00" stop-opacity="1"/><stop offset="0.0588235" stop-color="#ED7900" stop-opacity="1"/><stop offset="0.117647" stop-color="#ED7900" stop-opacity="1"/><stop offset="0.176471" stop-color="#ED7900" stop-opacity="1"/><stop offset="0.235294" stop-color="#EC7800" stop-opacity="1"/><stop offset="0.294118" stop-color="#EC7800" stop-opacity="1"/><stop offset="0.352941" stop-color="#EB7700" stop-opacity="1"/><stop offset="0.411765" stop-color="#EA7600" stop-opacity="1"/><stop offset="0.470588" stop-color="#E97500" stop-opacity="1"/><stop offset="0.529412" stop-color="#E87400" stop-opacity="1"/><stop offset="0.588235" stop-color="#E77300" stop-opacity="1"/><stop offset="0.647059" stop-color="#E67200" stop-opacity="1"/><stop offset="0.705882" stop-color="#E57000" stop-opacity="1"/><stop offset="0.764706" stop-color="#E36F00" stop-opacity="1"/><stop offset="0.823529" stop-color="#E26D00" stop-opacity="1"/><stop offset="0.882353" stop-color="#E06B00" stop-opacity="1"/><stop offset="0.941176" stop-color="#DE6900" stop-opacity="1"/><stop offset="1" stop-color="#DD6800" stop-opacity="1"/></linearGradient></defs><g clip-path="url(#clip0)" transform="translate(-276 -121)"><g clip-path="url(#clip1)"><g clip-path="url(#clip2)"><g clip-path="url(#clip3)"><g clip-path="url(#clip4)"><path d="M350.154 200.306C328.882 181.21 338.391 188.885 311.445 169.221 335.076 141.165 342.571 133.248 377.549 98.956L443.217 168.919C417.688 190.072 424.316 184.198 399.922 204.783 418.575 220.848 479.208 284.527 518.85 324.399 508.427 353.483 479.534 417.699 458.291 467.78L296.558 468.035C280.282 426.115 258.073 370.206 236.692 324.318L350.154 200.306Z" fill="#FBAE1C" fill-rule="evenodd" fill-opacity="1" transform="matrix(1 0 0 1.00018 124.891 23.0257)"/><path d="M288.697 486.088 469.011 486.088 515.507 537.773 239.367 538.909 288.697 486.088Z" fill="#FBAE1C" fill-rule="evenodd" fill-opacity="1" transform="matrix(1 0 0 1.00018 124.891 23.0257)"/><path d="M305.178 554.287 444.028 554.287C443.84 641.716 489.556 764.91 526.205 818.848 514.682 850.828 520.16 835.122 506.936 865.965L246.237 866.534C240.004 850.828 234.903 839.662 228.669 819.978 295.921 723.85 303.667 609.546 305.178 554.287Z" fill="#FBAE1C" fill-rule="evenodd" fill-opacity="1" transform="matrix(1 0 0 1.00018 124.891 23.0257)"/><path d="M580.277 1002.26 172.943 999.997C164.068 975.646 162.557 975.078 153.114 949.59 190.127 913.718 190.316 914.093 246.592 865.765L507.195 865.197C567.247 915.985 589.908 934.486 605.771 949.59 594.629 974.135 593.685 974.322 580.277 1002.26Z" fill="#FBAE1C" fill-rule="evenodd" fill-opacity="1" transform="matrix(1 0 0 1.00018 124.891 23.0257)"/><path d="M159.801 1017.64 593.736 1017.64 601.76 1025.67 601.76 1065.78 151.777 1065.78 151.777 1025.67Z" fill="url(#fill5)" fill-rule="evenodd" transform="matrix(1 0 0 1.00018 124.891 23.0257)"/><path d="M0 49.9709 143.085 0 85.0507 143.754 0 143.273 0 49.9709Z" fill="#FC9109" fill-rule="evenodd" fill-opacity="1" transform="matrix(-1 0 0 1.00018 506.006 348.036)"/><path d="M119.97 103.945 77.0894 69.0639 142.133 0 143.754 96.7502 95.084 259.425 0 225.373 119.97 103.945Z" fill="#FC9109" fill-rule="evenodd" fill-opacity="1" transform="matrix(-1 0 0 1.00018 644.411 123.337)"/><path d="M377.432 486.565 469.126 486.088 515.507 537.399 377.103 537.572C377.213 520.569 377.323 503.568 377.432 486.565Z" fill="#DD6800" fill-rule="evenodd" fill-opacity="1" transform="matrix(1 0 0 1.00018 124.891 23.0257)"/><path d="M490.372 950.098C440.679 952.177 265.793 951.596 217.971 950.098 280.952 914.006 301.316 904.251 371.086 865.765L507.484 865.197C494.569 927.873 495.633 920.418 490.372 950.098Z" fill="#FC9109" fill-rule="evenodd" fill-opacity="1" transform="matrix(1 0 0 1.00018 124.891 23.0257)"/><path d="M488.762 949.998C494.436 927.719 501.321 893.539 506.954 864.528 567.267 915.45 590.508 934.967 606.44 950.111L488.762 949.998Z" fill="#DD6800" fill-rule="evenodd" fill-opacity="1" transform="matrix(1 0 0 1.00018 124.891 23.0257)"/><path d="M580.277 1002.26 172.943 1000.02C164.068 975.907 162.557 975.345 153.114 950.111L605.771 950.111C594.629 974.409 593.685 974.596 580.277 1002.26Z" fill="url(#fill6)" fill-rule="evenodd" transform="matrix(1 0 0 1.00018 124.891 23.0257)"/><path d="M381.114 374.978 518.182 325.619 458.37 468.035 381.114 468.035 381.114 374.978Z" fill="#DD6800" fill-rule="evenodd" fill-opacity="1" transform="matrix(1 0 0 1.00018 124.891 23.0257)"/><path d="M379.109 555.076C378.558 600.562 378.187 589.971 377.41 626.499 316.901 567.89 365.454 615.476 305.56 554.287 348.879 555.298 343.835 555.234 379.109 555.076Z" fill="#FC9109" fill-rule="evenodd" fill-opacity="1" transform="matrix(1 0 0 1.00018 124.891 23.0257)"/><path d="M228.669 819.082C302.648 815.765 351.438 815.879 390.342 817.457 378.852 849.598 400.593 834.781 387.407 865.778L246.188 865.865C239.972 850.079 234.885 838.859 228.669 819.082Z" fill="#DD6800" fill-rule="evenodd" fill-opacity="1" transform="matrix(1 0 0 1.00018 124.891 23.0257)"/><path d="M0.596845 197.912C-2.70659 153.518 8.74363 36.4221 9.5201 0 59.9084 81.4749 125.04 143.926 161.806 197.739L0.596845 197.912Z" fill="#FC9109" fill-rule="evenodd" fill-opacity="1" transform="matrix(-1 0 0 1.00018 514.698 644.959)"/><path d="M385.466 819.062C382.179 774.685 377.757 659.561 378.529 623.155 428.657 704.594 464.221 764.141 500.798 817.932 457.707 816.922 429.659 818.426 385.466 819.062Z" fill="#EE7A00" fill-rule="evenodd" fill-opacity="1" transform="matrix(1 0 0 1.00018 124.891 23.0257)"/><path d="M379.002 554.768C425.323 554.768 397.641 554.287 443.962 554.287 443.773 641.567 489.527 764.549 526.205 818.393 503.62 818.152 521.596 818.313 496.829 818.38L376.434 623.139C377.426 585.75 377.49 609.931 379.002 554.768Z" fill="#DD6800" fill-rule="evenodd" fill-opacity="1" transform="matrix(1 0 0 1.00018 124.891 23.0257)"/><path d="M385.686 818.995C415.38 816.982 504.716 815.966 526.205 818.821 514.682 850.748 520.16 835.068 506.937 865.865L371.085 865.471C378.775 842.584 377.035 849.21 385.686 818.995Z" fill="#BB5202" fill-rule="evenodd" fill-opacity="1" transform="matrix(1 0 0 1.00018 124.891 23.0257)"/></g></g></g></g></g></svg>