<svg width="2598" height="2598" xmlns="http://www.w3.org/2000/svg" xmlns:xlink="http://www.w3.org/1999/xlink" xml:space="preserve" overflow="hidden"><defs><clipPath id="clip0"><rect x="0" y="0" width="2598" height="2598"/></clipPath><clipPath id="clip1"><rect x="0" y="0" width="2598" height="2598"/></clipPath><clipPath id="clip2"><rect x="514" y="419" width="1570" height="2053"/></clipPath><clipPath id="clip3"><rect x="514" y="419" width="1570" height="2053"/></clipPath><linearGradient x1="521.9" y1="3582.03" x2="2069.21" y2="3582.03" gradientUnits="userSpaceOnUse" spreadMethod="reflect" id="fill4"><stop offset="0" stop-color="#FC9109" stop-opacity="1"/><stop offset="0.025" stop-color="#FB9008" stop-opacity="1"/><stop offset="0.05" stop-color="#FB9008" stop-opacity="1"/><stop offset="0.075" stop-color="#FB9008" stop-opacity="1"/><stop offset="0.1" stop-color="#FB9008" stop-opacity="1"/><stop offset="0.125" stop-color="#FB9008" stop-opacity="1"/><stop offset="0.15" stop-color="#FB8F08" stop-opacity="1"/><stop offset="0.175" stop-color="#FA8F08" stop-opacity="1"/><stop offset="0.2" stop-color="#FA8E08" stop-opacity="1"/><stop offset="0.225" stop-color="#FA8E08" stop-opacity="1"/><stop offset="0.25" stop-color="#F98D08" stop-opacity="1"/><stop offset="0.275" stop-color="#F98D08" stop-opacity="1"/><stop offset="0.3" stop-color="#F88C08" stop-opacity="1"/><stop offset="0.325" stop-color="#F88C07" stop-opacity="1"/><stop offset="0.35" stop-color="#F78B07" stop-opacity="1"/><stop offset="0.375" stop-color="#F78A07" stop-opacity="1"/><stop offset="0.4" stop-color="#F68907" stop-opacity="1"/><stop offset="0.425" stop-color="#F58807" stop-opacity="1"/><stop offset="0.45" stop-color="#F58706" stop-opacity="1"/><stop offset="0.475" stop-color="#F48606" stop-opacity="1"/><stop offset="0.5" stop-color="#F38506" stop-opacity="1"/><stop offset="0.525" stop-color="#F28406" stop-opacity="1"/><stop offset="0.55" stop-color="#F18306" stop-opacity="1"/><stop offset="0.575" stop-color="#F18205" stop-opacity="1"/><stop offset="0.6" stop-color="#F08105" stop-opacity="1"/><stop offset="0.625" stop-color="#EF8005" stop-opacity="1"/><stop offset="0.65" stop-color="#EE7E04" stop-opacity="1"/><stop offset="0.675" stop-color="#ED7D04" stop-opacity="1"/><stop offset="0.7" stop-color="#EC7B04" stop-opacity="1"/><stop offset="0.725" stop-color="#EB7A04" stop-opacity="1"/><stop offset="0.75" stop-color="#E97903" stop-opacity="1"/><stop offset="0.775" stop-color="#E87703" stop-opacity="1"/><stop offset="0.8" stop-color="#E77603" stop-opacity="1"/><stop offset="0.825" stop-color="#E67402" stop-opacity="1"/><stop offset="0.85" stop-color="#E57202" stop-opacity="1"/><stop offset="0.875" stop-color="#E37101" stop-opacity="1"/><stop offset="0.9" stop-color="#E26F01" stop-opacity="1"/><stop offset="0.925" stop-color="#E16D01" stop-opacity="1"/><stop offset="0.95" stop-color="#DF6B00" stop-opacity="1"/><stop offset="0.975" stop-color="#DE6900" stop-opacity="1"/><stop offset="1" stop-color="#DD6800" stop-opacity="1"/></linearGradient><linearGradient x1="526.499" y1="3356.72" x2="2083" y2="3356.72" gradientUnits="userSpaceOnUse" spreadMethod="reflect" id="fill5"><stop offset="0" stop-color="#EE7A00" stop-opacity="1"/><stop offset="0.0588235" stop-color="#ED7900" stop-opacity="1"/><stop offset="0.117647" stop-color="#ED7900" stop-opacity="1"/><stop offset="0.176471" stop-color="#ED7900" stop-opacity="1"/><stop offset="0.235294" stop-color="#EC7800" stop-opacity="1"/><stop offset="0.294118" stop-color="#EC7800" stop-opacity="1"/><stop offset="0.352941" stop-color="#EB7700" stop-opacity="1"/><stop offset="0.411765" stop-color="#EA7600" stop-opacity="1"/><stop offset="0.470588" stop-color="#E97500" stop-opacity="1"/><stop offset="0.529412" stop-color="#E87400" stop-opacity="1"/><stop offset="0.588235" stop-color="#E77300" stop-opacity="1"/><stop offset="0.647059" stop-color="#E67200" stop-opacity="1"/><stop offset="0.705882" stop-color="#E57000" stop-opacity="1"/><stop offset="0.764706" stop-color="#E36F00" stop-opacity="1"/><stop offset="0.823529" stop-color="#E26D00" stop-opacity="1"/><stop offset="0.882353" stop-color="#E06B00" stop-opacity="1"/><stop offset="0.941176" stop-color="#DE6900" stop-opacity="1"/><stop offset="1" stop-color="#DD6800" stop-opacity="1"/></linearGradient></defs><g clip-path="url(#clip0)"><g clip-path="url(#clip1)"><path d="M0 433.009C-8.269e-14 193.865 193.865 0 433.009-8.269e-14L2164.99 0C2404.14-8.269e-14 2598 193.865 2598 433.009L2598 2164.99C2598 2404.14 2404.14 2598 2164.99 2598L433.009 2598C193.865 2598 0 2404.14 0 2164.99Z" fill="#081726" fill-rule="evenodd" fill-opacity="1"/><g clip-path="url(#clip2)"><g clip-path="url(#clip3)"><g><path d="M1204.04 688.77C1130.89 623.108 1163.59 649.499 1070.93 581.884 1152.19 485.409 1177.96 458.187 1298.24 340.27L1524.04 580.845C1436.26 653.58 1459.05 633.382 1375.17 704.168 1439.31 759.406 1647.8 978.372 1784.12 1115.48 1748.28 1215.49 1648.92 1436.3 1575.88 1608.51L1019.74 1609.38C963.777 1465.24 887.41 1272.99 813.889 1115.2L1204.04 688.77Z" fill="#FBAE1C" fill-rule="evenodd" fill-opacity="1" transform="matrix(1 0 0 1.00026 -4.6013 78.6414)"/><path d="M992.714 1671.46 1612.74 1671.46 1772.62 1849.18 823.085 1853.09 992.714 1671.46Z" fill="#FBAE1C" fill-rule="evenodd" fill-opacity="1" transform="matrix(1 0 0 1.00026 -4.6013 78.6414)"/><path d="M1049.39 1905.97 1526.83 1905.97C1526.19 2206.6 1683.39 2630.22 1809.41 2815.69 1769.78 2925.65 1788.62 2871.65 1743.15 2977.71L846.711 2979.66C825.276 2925.65 807.736 2887.26 786.299 2819.57 1017.55 2489.03 1044.19 2095.98 1049.39 1905.97Z" fill="#FBAE1C" fill-rule="evenodd" fill-opacity="1" transform="matrix(1 0 0 1.00026 -4.6013 78.6414)"/><path d="M1995.34 3446.38 594.681 3438.59C564.163 3354.85 558.967 3352.9 526.499 3265.26 653.771 3141.91 654.422 3143.2 847.929 2977.02L1744.04 2975.06C1950.53 3149.7 2028.46 3213.32 2083 3265.26 2044.69 3349.66 2041.44 3350.3 1995.34 3446.38Z" fill="#FBAE1C" fill-rule="evenodd" fill-opacity="1" transform="matrix(1 0 0 1.00026 -4.6013 78.6414)"/><path d="M549.49 3499.26 2041.62 3499.26 2069.21 3526.85 2069.21 3664.8 521.9 3664.8 521.9 3526.85Z" fill="url(#fill4)" fill-rule="evenodd" transform="matrix(1 0 0 1.00026 -4.6013 78.6414)"/><path d="M0 171.83 492.012 0 292.455 494.311 0 492.658 0 171.83Z" fill="#FC9109" fill-rule="evenodd" fill-opacity="1" transform="matrix(-1 0 0 1.00026 1305.9 1196.31)"/><path d="M412.529 357.424 265.079 237.483 488.738 0 494.311 332.685 326.956 892.059 0 774.967 412.529 357.424Z" fill="#FC9109" fill-rule="evenodd" fill-opacity="1" transform="matrix(-1 0 0 1.00026 1781.82 423.599)"/><path d="M1297.84 1673.1 1613.14 1671.46 1772.62 1847.9 1296.7 1848.49C1297.08 1790.03 1297.46 1731.57 1297.84 1673.1Z" fill="#DD6800" fill-rule="evenodd" fill-opacity="1" transform="matrix(1 0 0 1.00026 -4.6013 78.6414)"/><path d="M1686.19 3267C1515.32 3274.15 913.953 3272.15 749.513 3267 966.081 3142.9 1036.11 3109.35 1276.02 2977.02L1745.03 2975.06C1700.62 3190.58 1704.28 3164.95 1686.19 3267Z" fill="#FC9109" fill-rule="evenodd" fill-opacity="1" transform="matrix(1 0 0 1.00026 -4.6013 78.6414)"/><path d="M1680.66 3266.66C1700.17 3190.05 1723.84 3072.52 1743.21 2972.76 1950.6 3147.86 2030.52 3214.98 2085.3 3267.05L1680.66 3266.66Z" fill="#DD6800" fill-rule="evenodd" fill-opacity="1" transform="matrix(1 0 0 1.00026 -4.6013 78.6414)"/><path d="M1995.34 3446.38 594.681 3438.68C564.163 3355.75 558.967 3353.82 526.499 3267.05L2083 3267.05C2044.69 3350.6 2041.44 3351.24 1995.34 3446.38Z" fill="url(#fill5)" fill-rule="evenodd" transform="matrix(1 0 0 1.00026 -4.6013 78.6414)"/><path d="M1310.5 1289.4 1781.82 1119.67 1576.15 1609.38 1310.5 1609.38 1310.5 1289.4Z" fill="#DD6800" fill-rule="evenodd" fill-opacity="1" transform="matrix(1 0 0 1.00026 -4.6013 78.6414)"/><path d="M1303.6 1908.68C1301.71 2065.09 1300.43 2028.67 1297.76 2154.28 1089.69 1952.74 1256.65 2116.37 1050.7 1905.97 1199.65 1909.45 1182.31 1909.23 1303.6 1908.68Z" fill="#FC9109" fill-rule="evenodd" fill-opacity="1" transform="matrix(1 0 0 1.00026 -4.6013 78.6414)"/><path d="M786.299 2816.49C1040.69 2805.09 1208.45 2805.48 1342.23 2810.9 1302.72 2921.42 1377.48 2870.47 1332.14 2977.06L846.541 2977.36C825.166 2923.08 807.674 2884.5 786.299 2816.49Z" fill="#DD6800" fill-rule="evenodd" fill-opacity="1" transform="matrix(1 0 0 1.00026 -4.6013 78.6414)"/><path d="M2.05231 680.54C-9.30686 527.885 30.0658 125.241 32.7358 0 206.001 280.159 429.961 494.904 556.387 679.944L2.05231 680.54Z" fill="#FC9109" fill-rule="evenodd" fill-opacity="1" transform="matrix(-1 0 0 1.00026 1335.79 2217.38)"/><path d="M1325.46 2816.42C1314.16 2663.83 1298.95 2267.97 1301.61 2142.78 1473.98 2422.81 1596.27 2627.57 1722.04 2812.54 1573.87 2809.07 1477.42 2814.24 1325.46 2816.42Z" fill="#EE7A00" fill-rule="evenodd" fill-opacity="1" transform="matrix(1 0 0 1.00026 -4.6013 78.6414)"/><path d="M1303.24 1907.62C1462.51 1907.62 1367.33 1905.97 1526.61 1905.97 1525.96 2206.09 1683.28 2628.98 1809.41 2814.12 1731.75 2813.3 1793.56 2813.85 1708.4 2814.08L1294.4 2142.73C1297.82 2014.16 1298.04 2097.31 1303.24 1907.62Z" fill="#DD6800" fill-rule="evenodd" fill-opacity="1" transform="matrix(1 0 0 1.00026 -4.6013 78.6414)"/><path d="M1326.22 2816.19C1428.32 2809.27 1735.52 2805.78 1809.41 2815.59 1769.78 2925.38 1788.62 2871.46 1743.15 2977.36L1276.01 2976C1302.45 2897.31 1296.47 2920.09 1326.22 2816.19Z" fill="#BB5202" fill-rule="evenodd" fill-opacity="1" transform="matrix(1 0 0 1.00026 -4.6013 78.6414)"/></g></g></g></g></g></svg>