<svg width="1669" height="1668" xmlns="http://www.w3.org/2000/svg" xmlns:xlink="http://www.w3.org/1999/xlink" xml:space="preserve" overflow="hidden"><g transform="translate(-1365 -403)"><g><path d="M1375 1238C1375 782.365 1744.37 413 2200 413 2655.63 413 3025 782.365 3025 1238 3025 1693.63 2655.63 2063 2200 2063 1744.37 2063 1375 1693.63 1375 1238Z" stroke="#FFFFFF" stroke-width="13.75" stroke-linecap="butt" stroke-linejoin="miter" stroke-miterlimit="8" stroke-opacity="1" fill="#000000" fill-rule="evenodd" fill-opacity="1"/><path d="M2043.86 1780.8C1975.82 1791.76 1844.04 1599.86 1854.04 1461.04 1854.03 1318.22 2035.01 1082.53 2099.86 953.867 2196.71 777.168 2124.94 689.037 2135.08 689.042 2167.24 679.04 2220.06 714.518 2286.76 889.851 2353.46 1065.18 2205.25 1136.68 2355.22 1200.68 2434.13 1238.27 2375.35 1073.14 2394.28 1075.73 2491.25 1122.36 2554.5 1362 2546.88 1480.43 2539.27 1598.87 2450.87 1759.25 2348.59 1786.34 2322.34 1805.42 2401.62 1694.54 2375.36 1594.92 2341.1 1473.28 2253.26 1440.75 2223.06 1378.72 2192.86 1316.68 2206.3 1230.28 2194.16 1222.69 2130 1245.13 2037.22 1448.32 2012.18 1541.34 1987.13 1634.36 2027.87 1743.81 2043.86 1780.8Z" stroke="#042433" stroke-width="6.875" stroke-linecap="butt" stroke-linejoin="miter" stroke-miterlimit="8" stroke-opacity="1" fill="#FFFFFF" fill-rule="evenodd" fill-opacity="1"/></g></g></svg>